<?xml version='1.0' encoding='utf-8'?>
<svg xmlns="http://www.w3.org/2000/svg" xmlns:xlink="http://www.w3.org/1999/xlink" enable-background="new 0 0 40 40" version="1.1" viewBox="0 0 40 40">
<symbol id="cv" viewBox="0 -11.3 14.8 11.3">
		<path d="m9.4-5.55c-0.233 0.2-0.35 0.15-0.35-0.15 0-0.333 0.1-0.583 0.3-0.75 0.267-0.267 0.483-0.283 0.65-0.05 0.133 0.2-0.067 0.517-0.6 0.95zm2.05-4l-1.1 0.2-0.5 1.4c-0.3 0.633-0.5 1.034-0.6 1.2-0.2 0.3-0.533 0.683-1 1.15 0.2 0.367 0.133 0.75-0.2 1.15-0.167 0.167-0.35 0.25-0.55 0.25s-0.35-0.083-0.45-0.25l-1.1 1.05c0.133 0 0.233 0.033 0.3 0.1 0.1 0.066 0.1 0.15 0 0.25-0.167 0.233-0.4 0.383-0.7 0.45-0.267 0.1-0.4 0.05-0.4-0.15l-1.25 0.9c0.2 0.2 0.133 0.383-0.2 0.55-0.333 0.233-0.534 0.233-0.6 0-1.2 0.667-2.233 1.1-3.1 1.3 3.5-0.533 6.483-2.1 8.95-4.7 1.267-1.367 2.3-2.816 3.1-4.35 0.167-0.233 0.65-0.5 1.45-0.8 0.667-0.233 1.083-0.667 1.25-1.3l0.05-0.15c-0.3 0.333-0.667 0.633-1.1 0.9-0.633 0.367-1.383 0.65-2.25 0.85zm-1.25 1.6c0-0.333 0.233-0.566 0.7-0.7 0.4-0.133 0.383 0.183-0.05 0.95-0.2 0.4-0.367 0.534-0.5 0.4s-0.183-0.35-0.15-0.65z" clip-rule="evenodd" fill-rule="evenodd"/>
</symbol>
<symbol id="cw" viewBox="0 -28.201 37.603 28.651">
		<path d="m36.3-9.05c0.667-0.233 1.083-0.667 1.25-1.3 0.133-0.533 0.017-1.117-0.35-1.75-0.5-0.833-0.817-1.566-0.95-2.2-0.733-3.367-2.583-6.383-5.55-9.05-3.534-3.2-7.684-4.816-12.45-4.85-4.4-0.033-7.967 0.733-10.7 2.3-0.9 0.533-2.066 1.55-3.5 3.05-0.2 0.2-0.933 0.517-2.2 0.95-1.067 0.333-1.65 0.816-1.75 1.45l-0.1 0.55c0.433-0.667 1.367-1.133 2.8-1.4 1.4-0.3 2.667-0.684 3.8-1.15 1.066-0.4 1.95-0.667 2.65-0.8 5.467-0.967 10.833-0.067 16.1 2.7 2.467 1.333 4.383 3.267 5.75 5.8 1.233 2.367 1.583 4.383 1.05 6.05-0.5 1.467-1.3 2.967-2.4 4.5-1.467 2-3.2 3.55-5.2 4.65 2.934-0.8 5.467-2.4 7.6-4.8 1.067-1.233 1.967-2.533 2.7-3.9 0.167-0.233 0.65-0.5 1.45-0.8zm-2.9-0.65c0-0.133 0.083-0.45 0.25-0.95 0.1-0.434 0.55-0.6 1.35-0.5 0.767 0.066 1.2 0.25 1.3 0.55l0.15 0.5c-0.633 0.633-1.383 0.883-2.25 0.75-0.5-0.1-0.767-0.217-0.8-0.35z" clip-rule="evenodd" fill-rule="evenodd"/>
</symbol>
<symbol id="cx" viewBox="-0.2 -10.85 25.45 11.612">
		<path d="m9.75-9.9c-0.333 0-0.6-0.133-0.8-0.4s-0.033-0.383 0.5-0.35c0.667 0.1 1.117 0.25 1.35 0.45 0.266 0.233-0.084 0.333-1.05 0.3zm-2.3-0.1c0.434-0.033 0.733 0.017 0.9 0.15 0.167 0.167 0 0.267-0.5 0.3-0.233 0.033-0.45-0.033-0.65-0.2-0.234-0.133-0.15-0.217 0.25-0.25zm8.95 1.65c-0.2-0.133-0.133-0.183 0.2-0.15 0.333 0.067 0.65 0.217 0.95 0.45 0.266 0.233 0.117 0.25-0.45 0.05-0.333-0.133-0.567-0.25-0.7-0.35zm-0.6 1.3c0.4 0.066 0.617 0.25 0.65 0.55 0.067 0.3-0.167 0.267-0.7-0.1-0.2-0.133-0.317-0.233-0.35-0.3-0.067-0.133 0.066-0.183 0.4-0.15zm3.35 0.75c-0.2-0.267-0.2-0.383 0-0.35 0.233 0.033 0.5 0.267 0.8 0.7 0.3 0.467 0.267 0.567-0.1 0.3-0.267-0.2-0.5-0.417-0.7-0.65zm-4.5-2.2c-0.2-0.333-0.15-0.467 0.15-0.4 0.367 0.066 0.733 0.316 1.1 0.75 0.367 0.4 0.233 0.5-0.4 0.3-0.4-0.133-0.684-0.35-0.85-0.65zm-3.2-1.2c-0.167-0.2 0-0.3 0.5-0.3 0.567 0.033 0.934 0.15 1.1 0.35 0.133 0.2-0.167 0.283-0.9 0.25-0.334-0.033-0.567-0.133-0.7-0.3zm7.3 4.45c0.2 0.567 0.017 0.683-0.55 0.35-0.367-0.233-0.633-0.55-0.8-0.95s-0.033-0.55 0.4-0.45c0.433 0.133 0.75 0.483 0.95 1.05zm2.05 1.6c0.467 0.1 0.767 0.483 0.9 1.15 0.167 0.633-0.133 0.7-0.9 0.2-0.233-0.133-0.383-0.417-0.45-0.85s0.083-0.6 0.45-0.5zm2.55 4.35c0.567-0.1 0.983-0.1 1.25 0 0.434 0.133 0.65 0.05 0.65-0.25-0.9-2.067-2.184-3.95-3.85-5.65-1.867-1.9-4.017-3.333-6.45-4.3l-0.9-0.05c-0.167 0-0.333-0.067-0.5-0.2-0.133-0.133-0.2-0.25-0.2-0.35-1.6-0.467-3.333-0.717-5.2-0.75l-1.05 0.05c0.2 0.133-0.066 0.267-0.8 0.4-0.267 0.033-0.517 0.017-0.75-0.05-0.2-0.066-0.3-0.15-0.3-0.25-0.534 0.034-1.184 0.117-1.95 0.25 0.133 0.2-0.167 0.35-0.9 0.45-0.267 0.033-0.4-0.033-0.4-0.2-0.534 0.1-1.233 0.284-2.1 0.55l-0.1 0.25c0.033 0.267 0.55 0.3 1.55 0.1 1.6-0.3 2.534-0.45 2.8-0.45-0.133-0.2 0.083-0.3 0.65-0.3 0.367 0.033 0.667 0.083 0.9 0.15 0.233 0.1 0.283 0.183 0.15 0.25 0.633 0.067 2.817 0.383 6.55 0.95 0.667 0.1 1.417 0.567 2.25 1.4 1.1 1.066 1.7 1.633 1.8 1.7 0.333 0.2 0.6 0.467 0.8 0.8 0.133 0.2 0.333 0.517 0.6 0.95 0.2-0.433 0.567-0.45 1.1-0.05 0.333 0.267 0.533 0.55 0.6 0.85s-0.033 0.483-0.3 0.55l0.9 0.75c0-0.433 0.283-0.433 0.85 0 0.4 0.267 0.617 0.533 0.65 0.8s-0.1 0.35-0.4 0.25l1.1 1.1c0.233 0.267 0.567 0.367 1 0.3zm0.35-2.15c0.233 0.534 0.117 0.55-0.35 0.05-0.167-0.133-0.3-0.333-0.4-0.6s-0.066-0.383 0.1-0.35c0.2 0.067 0.416 0.367 0.65 0.9z" clip-rule="evenodd" fill-rule="evenodd"/>
</symbol>
<symbol id="cy" viewBox="0.014 -0.755 1.226 0.783">
		<path d="m1.15-0.35c-0.167-0.3-0.433-0.433-0.8-0.4s-0.434 0.133-0.2 0.3c0.067 0.067 0.333 0.2 0.8 0.4 0.3 0.167 0.367 0.067 0.2-0.3z" clip-rule="evenodd" fill="#fff" fill-rule="evenodd"/>
</symbol>
<symbol id="cz" viewBox="0.044 -0.658 1.256 0.653">
		<path d="m0.85-0.05c0.4 0.1 0.533 0.033 0.4-0.2-0.167-0.233-0.45-0.367-0.85-0.4-0.367-0.033-0.45 0.033-0.25 0.2 0.167 0.167 0.4 0.3 0.7 0.4z" clip-rule="evenodd" fill="#fff" fill-rule="evenodd"/>
</symbol>
<symbol id="da" viewBox="-0.038 -0.807 1.398 0.807">
		<path d="m0.6 0c0.7 0 0.917-0.15 0.65-0.45-0.3-0.333-0.617-0.433-0.95-0.3-0.3 0.133-0.4 0.3-0.3 0.5 0.1 0.167 0.3 0.25 0.6 0.25z" clip-rule="evenodd" fill="#fff" fill-rule="evenodd"/>
</symbol>
<symbol id="db" viewBox="0 -0.625 0.739 0.65">
		<path d="m0.6 0c0.167-0.067 0.183-0.2 0.05-0.4-0.1-0.2-0.25-0.267-0.45-0.2s-0.25 0.2-0.15 0.4 0.283 0.267 0.55 0.2z" clip-rule="evenodd" fill-rule="evenodd"/>
</symbol>
<symbol id="dc" viewBox="-0.005 -0.956 0.959 0.968">
		<path d="m0.95-0.3c0.033-0.367-0.133-0.583-0.5-0.65-0.333-0.033-0.483 0.083-0.45 0.35 0.033 0.233 0.133 0.4 0.3 0.5 0.4 0.2 0.617 0.133 0.65-0.2z" clip-rule="evenodd" fill-rule="evenodd"/>
</symbol>
<symbol id="dd" viewBox="0 -0.77 1 0.776">
		<path d="m0.5 0c0.333-0.033 0.5-0.183 0.5-0.45-0.033-0.267-0.2-0.367-0.5-0.3-0.333 0.067-0.5 0.217-0.5 0.45s0.167 0.333 0.5 0.3z" clip-rule="evenodd" fill-rule="evenodd"/>
</symbol>
<symbol id="de" viewBox="-0.022 -0.45 0.867 0.45">
		<path d="m0.6-0.1c0.233-0.133 0.3-0.233 0.2-0.3s-0.283-0.067-0.55 0c-0.233 0.067-0.317 0.167-0.25 0.3 0.1 0.133 0.3 0.133 0.6 0z" clip-rule="evenodd" fill-rule="evenodd"/>
</symbol>
<symbol id="df" viewBox="0 -0.87 1.539 0.909">
		<path d="m1.5-0.25c-0.2-0.3-0.533-0.5-1-0.6-0.333-0.067-0.5 0.033-0.5 0.3 0.033 0.267 0.167 0.433 0.4 0.5 0.9 0.167 1.267 0.1 1.1-0.2z" clip-rule="evenodd" fill-rule="evenodd"/>
</symbol>
<symbol id="dg" viewBox="0.009 -1.295 1.086 1.312">
		<path d="m1-0.4c-0.167-0.467-0.4-0.75-0.7-0.85-0.267-0.1-0.35-0.033-0.25 0.2s0.3 0.5 0.6 0.8c0.433 0.4 0.55 0.35 0.35-0.15z" clip-rule="evenodd" fill-rule="evenodd"/>
</symbol>
<symbol id="dh" viewBox="-0.025 -0.988 1.345 1.013">
		<path d="m1.25 0c0.167-0.1 0.033-0.317-0.4-0.65-0.333-0.3-0.583-0.4-0.75-0.3s-0.167 0.217 0 0.35c0.633 0.5 1.017 0.7 1.15 0.6z" clip-rule="evenodd" fill-rule="evenodd"/>
</symbol>
<symbol id="di" viewBox="0 -1.205 1.517 1.221">
		<path d="m1.45-0.45c-0.2-0.433-0.534-0.683-1-0.75-0.4-0.033-0.534 0.117-0.4 0.45 0.1 0.367 0.317 0.583 0.65 0.65 0.7 0.233 0.95 0.117 0.75-0.35z" clip-rule="evenodd" fill-rule="evenodd"/>
</symbol>
<symbol id="dj" viewBox="0.038 -0.557 1.291 0.563">
		<path d="m1.2-0.3c-0.233-0.2-0.517-0.283-0.85-0.25s-0.4 0.117-0.2 0.25c0.167 0.167 0.433 0.267 0.8 0.3 0.4 0.033 0.483-0.067 0.25-0.3z" clip-rule="evenodd" fill-rule="evenodd"/>
</symbol>
<symbol id="dk" viewBox="-0.006 -0.75 1.537 0.741">
		<path d="m0.5-0.05c0.933 0.1 1.233 0.017 0.9-0.25-0.333-0.3-0.683-0.45-1.05-0.45-0.267 0.033-0.383 0.15-0.35 0.35 0.067 0.2 0.233 0.317 0.5 0.35z" clip-rule="evenodd" fill-rule="evenodd"/>
</symbol>
<symbol id="dl" viewBox="-0.004 -1.104 0.9 1.118">
		<path d="m0.8-0.5c-0.167-0.433-0.367-0.633-0.6-0.6-0.233 0-0.267 0.167-0.1 0.5s0.35 0.533 0.55 0.6c0.267 0.067 0.317-0.1 0.15-0.5z" clip-rule="evenodd" fill-rule="evenodd"/>
</symbol>
<symbol id="dn" viewBox="-0.038 -2.463 3.355 2.463">
		<path d="m3.25 0c0.067-0.233 0.083-0.383 0.05-0.45l-0.25-0.35c-0.066-0.133-0.167-0.25-0.3-0.35-0.2-0.133-0.367-0.267-0.5-0.4-0.233-0.233-0.35-0.367-0.35-0.4-0.067-0.033-0.133-0.017-0.2 0.05-0.1 0.1-0.217 0.133-0.35 0.1-0.167-0.034-0.3-0.133-0.4-0.3-0.067-0.133-0.133-0.25-0.2-0.35-0.067-0.033-0.233 0-0.5 0.1-0.4 0.167-0.383 0.567 0.05 1.2l1.35 0.1c0.5 0.067 1.033 0.417 1.6 1.05z" clip-rule="evenodd" fill-rule="evenodd"/>
</symbol>
<symbol id="do" viewBox="-0.002 -3.202 4.491 3.202">
		<path d="m2 0c2.467-0.633 3.1-1.567 1.9-2.8-0.4-0.433-0.933-0.517-1.6-0.25-0.8 0.433-1.417 0.75-1.85 0.95-0.567 0.267-0.6 0.684-0.1 1.25 0.467 0.567 1.017 0.85 1.65 0.85z" clip-rule="evenodd" fill="#FDFFE3" fill-rule="evenodd"/>
</symbol>
<symbol id="dp" viewBox="-0.007 -16.308 21.47 16.284">
		<path d="m13.8-0.05c1.7 0.133 3.617-0.25 5.75-1.15 1.967-0.833 2.417-2.517 1.35-5.05-0.9-2.167-2.2-3.867-3.9-5.1-1-0.767-2.733-1.5-5.2-2.2-2.633-0.767-4.066-1.217-4.3-1.35-1-0.567-2-0.967-3-1.2-1.4-0.333-2.517-0.267-3.35 0.2s-1.217 1.067-1.15 1.8c0.033 0.233 0.383 1.267 1.05 3.1 0.6 1.6 1.4 3.2 2.4 4.8 1.167 1.867 2.25 3.067 3.25 3.6 2.867 1.533 5.233 2.383 7.1 2.55z" clip-rule="evenodd" fill="#FDFFE3" fill-rule="evenodd"/>
</symbol>
<symbol id="dq" viewBox="0.029 -18.677 26.054 18.662">
		<path d="m25.5-4c0.867-1.633 0.767-3.567-0.3-5.8-1.333-2.8-3.317-4.85-5.95-6.15-2.533-1.267-6.283-2.133-11.25-2.6-5-0.467-7.65 0.35-7.95 2.45-0.133 0.8 0.367 2.333 1.5 4.6 0.434 1.367 0.883 2.517 1.35 3.45 0.833 1.733 2.267 3.317 4.3 4.75 3.633 2.633 7.233 3.683 10.8 3.15 3.933-0.533 6.433-1.817 7.5-3.85z" clip-rule="evenodd" fill="#FDFFE3" fill-rule="evenodd"/>
</symbol>
<symbol id="dr" viewBox="0.033 -0.7 1.42 0.72">
		<path d="m1.4-0.3c-0.133-0.233-0.433-0.367-0.9-0.4-0.467 0-0.583 0.1-0.35 0.3s0.533 0.333 0.9 0.4 0.483-0.033 0.35-0.3z" clip-rule="evenodd" fill-rule="evenodd"/>
</symbol>
<symbol id="ds" viewBox="-0.004 -1.347 1.472 1.369">
		<path d="m1.45-0.4c-0.1-0.434-0.4-0.733-0.9-0.9-0.4-0.133-0.583 0.017-0.55 0.45 0 0.4 0.167 0.65 0.5 0.75 0.733 0.233 1.05 0.133 0.95-0.3z" clip-rule="evenodd" fill-rule="evenodd"/>
</symbol>
<symbol id="dt" viewBox="-0.029 -0.9 1.127 0.907">
		<path d="m0.45-0.05c0.6-0.434 0.783-0.7 0.55-0.8-0.1-0.033-0.383-0.05-0.85-0.05-0.167 0-0.217 0.183-0.15 0.55 0.1 0.333 0.25 0.433 0.45 0.3z" clip-rule="evenodd" fill-rule="evenodd"/>
</symbol>
<symbol id="du" viewBox="-0.018 -1.017 1.476 1.045">
		<path d="m1.45-0.35c-0.1-0.367-0.367-0.583-0.8-0.65-0.367-0.067-0.583 0.067-0.65 0.4-0.067 0.3 0.05 0.483 0.35 0.55 0.8 0.167 1.167 0.067 1.1-0.3z" clip-rule="evenodd" fill-rule="evenodd"/>
</symbol>
<symbol id="dv" viewBox="0.005 -1.35 1.567 1.357">
		<path d="m1.5-0.55c-0.2-0.534-0.55-0.8-1.05-0.8-0.433 0.033-0.55 0.217-0.35 0.55 0.167 0.333 0.417 0.566 0.75 0.7 0.633 0.233 0.85 0.083 0.65-0.45z" clip-rule="evenodd" fill-rule="evenodd"/>
</symbol>
<symbol id="dw" viewBox="0.011 -1.254 1.105 1.267">
		<path d="m1.05-0.55c-0.167-0.433-0.417-0.667-0.75-0.7-0.3-0.033-0.367 0.167-0.2 0.6 0.133 0.4 0.3 0.617 0.5 0.65 0.467 0.067 0.617-0.117 0.45-0.55z" clip-rule="evenodd" fill-rule="evenodd"/>
</symbol>
<symbol id="dx" viewBox="-0.007 -1.353 0.917 1.365">
		<path d="m0.85-0.5c-0.167-0.6-0.367-0.883-0.6-0.85-0.2 0-0.283 0.167-0.25 0.5 0.033 0.367 0.133 0.6 0.3 0.7 0.533 0.3 0.717 0.183 0.55-0.35z" clip-rule="evenodd" fill-rule="evenodd"/>
</symbol>
<symbol id="dy" viewBox="0.004 -1.364 0.985 1.406">
		<path d="m0.85-0.15c0.2-0.533 0.183-0.9-0.05-1.1-0.233-0.167-0.467-0.15-0.7 0.05-0.167 0.167-0.117 0.467 0.15 0.9 0.267 0.4 0.467 0.45 0.6 0.15z" clip-rule="evenodd" fill-rule="evenodd"/>
</symbol>
<symbol id="dz" viewBox="-0.028 -1.239 1.034 1.312">
		<path d="m0.95-0.05c0.1-0.333 0.066-0.633-0.1-0.9-0.2-0.3-0.434-0.367-0.7-0.2-0.267 0.133-0.233 0.4 0.1 0.8 0.4 0.433 0.633 0.533 0.7 0.3z" clip-rule="evenodd" fill-rule="evenodd"/>
</symbol>
<symbol id="ea" viewBox="-0.024 -1.53 1.526 1.565">
		<path d="m1.4-0.5c-0.267-0.6-0.6-0.933-1-1-0.4-0.1-0.517 0.05-0.35 0.45 0.167 0.367 0.45 0.667 0.85 0.9 0.567 0.333 0.733 0.217 0.5-0.35z" clip-rule="evenodd" fill-rule="evenodd"/>
</symbol>
<symbol id="eb" viewBox="-0.025 -0.606 0.92 0.601">
		<path d="m0.45-0.05c0.433 0.1 0.55 0.033 0.35-0.2-0.2-0.267-0.4-0.383-0.6-0.35-0.2 0-0.267 0.083-0.2 0.25s0.217 0.267 0.45 0.3z" clip-rule="evenodd" fill-rule="evenodd"/>
</symbol>
<symbol id="ec" viewBox="-0.013 -1.305 1.584 1.317">
		<path d="m1.55-0.5c-0.133-0.5-0.45-0.767-0.95-0.8-0.467-0.033-0.667 0.1-0.6 0.4 0.1 0.3 0.367 0.55 0.8 0.75 0.6 0.3 0.85 0.183 0.75-0.35z" clip-rule="evenodd" fill-rule="evenodd"/>
</symbol>
<symbol id="ed" viewBox="-0.044 -1.004 1.719 1.004">
		<path d="m1-0.05c0.6 0.133 0.8 0 0.6-0.4-0.233-0.4-0.6-0.583-1.1-0.55-0.467 0-0.633 0.133-0.5 0.4 0.167 0.267 0.5 0.45 1 0.55z" clip-rule="evenodd" fill-rule="evenodd"/>
</symbol>
<symbol id="ee" viewBox="0.003 -0.8 1.37 0.805">
		<path d="m0.65 0c0.567-0.033 0.8-0.183 0.7-0.45-0.1-0.233-0.383-0.35-0.85-0.35-0.433 0-0.583 0.133-0.45 0.4 0.1 0.3 0.3 0.433 0.6 0.4z" clip-rule="evenodd" fill-rule="evenodd"/>
</symbol>
<symbol id="ef" viewBox="-0.025 -0.864 1.657 0.864">
		<path d="m1.05-0.05c0.633-0.267 0.75-0.483 0.35-0.65-0.433-0.2-0.833-0.217-1.2-0.05-0.3 0.167-0.3 0.35 0 0.55 0.267 0.2 0.55 0.25 0.85 0.15z" clip-rule="evenodd" fill-rule="evenodd"/>
</symbol>
<symbol id="eg" viewBox="0.015 -0.557 1.064 0.563">
		<path d="m0.6 0c0.4-0.033 0.55-0.133 0.45-0.3-0.067-0.133-0.283-0.217-0.65-0.25-0.333-0.033-0.45 0.05-0.35 0.25 0.1 0.233 0.283 0.333 0.55 0.3z" clip-rule="evenodd" fill="#fff" fill-rule="evenodd"/>
</symbol>
<symbol id="eh" viewBox="-0.001 -0.8 1.52 0.868">
		<path d="m1.45-0.25c-0.233-0.367-0.583-0.55-1.05-0.55-0.633 0.033-0.517 0.267 0.35 0.7 0.667 0.267 0.9 0.217 0.7-0.15z" clip-rule="evenodd" fill="#fff" fill-rule="evenodd"/>
</symbol>
<symbol id="ei" viewBox="0.011 -0.722 1.117 0.763">
		<path d="m1.05-0.25c-0.167-0.267-0.417-0.417-0.75-0.45-0.3-0.067-0.367 0.017-0.2 0.25s0.383 0.383 0.65 0.45c0.367 0.1 0.467 0.017 0.3-0.25z" clip-rule="evenodd" fill="#fff" fill-rule="evenodd"/>
</symbol>
<symbol id="ej" viewBox="0.082 -1.15 1.247 1.2">
		<path d="m1.2-0.4c-0.2-0.467-0.483-0.717-0.85-0.75-0.5 0-0.3 0.333 0.6 1 0.4 0.333 0.483 0.25 0.25-0.25z" clip-rule="evenodd" fill="#fff" fill-rule="evenodd"/>
</symbol>
<symbol id="ek" viewBox="-0.014 -0.9 0.764 0.894">
		<path d="m0.35-0.15c0.4 0.233 0.5 0.183 0.3-0.15-0.2-0.367-0.383-0.567-0.55-0.6-0.133 0-0.15 0.117-0.05 0.35 0.1 0.2 0.2 0.333 0.3 0.4z" clip-rule="evenodd" fill="#fff" fill-rule="evenodd"/>
</symbol>
<symbol id="el" viewBox="-0.039 -1.062 0.719 1.109">
		<path d="m0.5 0c0.2-0.2 0.233-0.417 0.1-0.65-0.1-0.2-0.267-0.333-0.5-0.4-0.167-0.067-0.184 0.133-0.05 0.6 0.167 0.433 0.317 0.583 0.45 0.45z" clip-rule="evenodd" fill="#fff" fill-rule="evenodd"/>
</symbol>
<symbol id="em" viewBox="-0.028 -0.95 0.79 0.975">
		<path d="m0.65-0.2c0.1-0.367 0.133-0.583 0.1-0.65-0.033-0.133-0.2-0.133-0.5 0-0.333 0.133-0.367 0.35-0.1 0.65s0.433 0.3 0.5 0z" clip-rule="evenodd" fill="#fff" fill-rule="evenodd"/>
</symbol>
<symbol id="bu" viewBox="0 -0.907 1.034 0.936">
		<path d="m0.65-0.2c0.434-0.433 0.5-0.667 0.2-0.7s-0.55 0.05-0.75 0.25c-0.133 0.2-0.133 0.383 0 0.55 0.1 0.2 0.283 0.167 0.55-0.1z" clip-rule="evenodd" fill="#fff" fill-rule="evenodd"/>
</symbol>
<symbol id="bv" viewBox="0.017 -0.55 0.723 0.557">
		<path d="m0.3 0c0.633-0.133 0.583-0.317-0.15-0.55-0.133 0.033-0.167 0.133-0.1 0.3 0.033 0.2 0.117 0.283 0.25 0.25z" clip-rule="evenodd" fill="#fff" fill-rule="evenodd"/>
</symbol>
<symbol id="bw" viewBox="-0.029 -0.675 0.919 0.682">
		<path d="m0.4 0c0.467-0.1 0.6-0.25 0.4-0.45-0.233-0.2-0.45-0.267-0.65-0.2-0.167 0.033-0.217 0.167-0.15 0.4 0.067 0.2 0.2 0.283 0.4 0.25z" clip-rule="evenodd" fill="#fff" fill-rule="evenodd"/>
</symbol>
<symbol id="bx" viewBox="-0.046 -1.05 0.73 1.093">
		<path d="m0.65-0.15c0.067-0.233 0.033-0.467-0.1-0.7-0.167-0.2-0.333-0.25-0.5-0.15-0.167 0.067-0.117 0.3 0.15 0.7 0.233 0.4 0.383 0.45 0.45 0.15z" clip-rule="evenodd" fill="#fff" fill-rule="evenodd"/>
</symbol>
<symbol id="by" viewBox="0 -1.153 0.978 1.17">
		<path d="m0.7 0c0.333-0.133 0.367-0.383 0.1-0.75-0.233-0.367-0.45-0.483-0.65-0.35s-0.2 0.367 0 0.7c0.167 0.333 0.35 0.467 0.55 0.4z" clip-rule="evenodd" fill="#fff" fill-rule="evenodd"/>
</symbol>
<symbol id="bz" viewBox="-0.012 -1.105 1.175 1.07">
		<path d="m0.85-0.05c0.333-0.067 0.4-0.267 0.2-0.6-0.167-0.333-0.417-0.483-0.75-0.45s-0.4 0.233-0.2 0.6c0.233 0.367 0.483 0.517 0.75 0.45z" clip-rule="evenodd" fill="#fff" fill-rule="evenodd"/>
</symbol>
<symbol id="ca" viewBox="-0.014 -0.564 0.814 0.539">
		<path d="m0.6-0.1c0.267-0.167 0.267-0.3 0-0.4s-0.45-0.083-0.55 0.05c-0.1 0.1-0.083 0.217 0.05 0.35 0.133 0.1 0.3 0.1 0.5 0z" clip-rule="evenodd" fill="#fff" fill-rule="evenodd"/>
</symbol>
<symbol id="cb" viewBox="0.011 -0.768 1.33 0.773">
		<path d="m1.25-0.4c-0.267-0.3-0.583-0.417-0.95-0.35-0.3 0.033-0.367 0.167-0.2 0.4 0.133 0.233 0.3 0.35 0.5 0.35 0.667 0.033 0.883-0.1 0.65-0.4z" clip-rule="evenodd" fill="#fff" fill-rule="evenodd"/>
</symbol>
<symbol id="cc" viewBox="-0.052 -0.817 1.188 0.822">
		<path d="m1.1-0.4c-0.133-0.333-0.4-0.467-0.8-0.4-0.5 0.133-0.467 0.4 0.1 0.8 0.6 0.033 0.833-0.1 0.7-0.4z" clip-rule="evenodd" fill="#fff" fill-rule="evenodd"/>
</symbol>
<symbol id="cd" viewBox="0.004 -0.8 1 0.818">
		<path d="m0.95-0.35c-0.133-0.3-0.367-0.45-0.7-0.45-0.267 0.033-0.317 0.167-0.15 0.4 0.133 0.2 0.3 0.333 0.5 0.4 0.367 0.067 0.483-0.05 0.35-0.35z" clip-rule="evenodd" fill="#fff" fill-rule="evenodd"/>
</symbol>
<symbol id="ce" viewBox="-0.015 -0.673 1.019 0.679">
		<path d="m1-0.15c0.033-0.167-0.15-0.317-0.55-0.45-0.367-0.133-0.517-0.083-0.45 0.15 0.033 0.233 0.133 0.367 0.3 0.4 0.4 0.1 0.633 0.067 0.7-0.1z" clip-rule="evenodd" fill="#fff" fill-rule="evenodd"/>
</symbol>
<symbol id="cf" viewBox="-0.02 -0.707 1.225 0.727">
		<path d="m1.2-0.3c-0.067-0.233-0.317-0.367-0.75-0.4-0.434-0.033-0.567 0.05-0.4 0.25 0.167 0.233 0.417 0.383 0.75 0.45 0.3 0.067 0.433-0.033 0.4-0.3z" clip-rule="evenodd" fill="#fff" fill-rule="evenodd"/>
</symbol>
<symbol id="cg" viewBox="0 -0.75 1.172 0.72">
		<path d="m0.45-0.05c0.566 0.066 0.8-0.034 0.7-0.3-0.133-0.267-0.367-0.4-0.7-0.4-0.3 0-0.45 0.117-0.45 0.35 0.033 0.2 0.183 0.317 0.45 0.35z" clip-rule="evenodd" fill="#fff" fill-rule="evenodd"/>
</symbol>
<symbol id="ch" viewBox="0.032 -0.706 1.092 0.711">
		<path d="m1.1-0.35c-0.1-0.267-0.333-0.383-0.7-0.35-0.3 0.033-0.417 0.15-0.35 0.35s0.2 0.317 0.4 0.35c0.533 0.033 0.75-0.083 0.65-0.35z" clip-rule="evenodd" fill="#fff" fill-rule="evenodd"/>
</symbol>
<symbol id="ci" viewBox="-0.023 -0.65 0.985 0.65">
		<path d="m0.65-0.05c0.333-0.1 0.4-0.25 0.2-0.45s-0.417-0.2-0.65 0-0.284 0.35-0.15 0.45c0.167 0.067 0.367 0.067 0.6 0z" clip-rule="evenodd" fill="#fff" fill-rule="evenodd"/>
</symbol>
<symbol id="cj" viewBox="-0.006 -0.805 0.662 0.805">
		<path d="m0.35 0c0.233 0 0.333-0.117 0.3-0.35s-0.15-0.383-0.35-0.45c-0.233-0.033-0.333 0.1-0.3 0.4 0.033 0.267 0.15 0.4 0.35 0.4z" clip-rule="evenodd" fill="#fff" fill-rule="evenodd"/>
</symbol>
<symbol id="ck" viewBox="-0.02 -0.6 0.95 0.629">
		<path d="m0.75 0c0.2-0.067 0.233-0.2 0.1-0.4s-0.333-0.25-0.6-0.15c-0.3 0.1-0.35 0.233-0.15 0.4 0.167 0.167 0.383 0.217 0.65 0.15z" clip-rule="evenodd" fill="#fff" fill-rule="evenodd"/>
</symbol>
<symbol id="cl" viewBox="-0.032 -0.856 1.525 0.845">
		<path d="m0.5-0.1c0.8 0.167 1.117 0.1 0.95-0.2-0.2-0.3-0.55-0.483-1.05-0.55-0.367-0.033-0.5 0.083-0.4 0.35 0.133 0.233 0.3 0.367 0.5 0.4z" clip-rule="evenodd" fill="#fff" fill-rule="evenodd"/>
</symbol>
<symbol id="cm" viewBox="0.017 -0.937 0.986 0.949">
		<path d="m1-0.3c0-0.267-0.167-0.467-0.5-0.6-0.233-0.1-0.383 0-0.45 0.3-0.066 0.3-0.033 0.483 0.1 0.55 0.6 0.133 0.883 0.05 0.85-0.25z" clip-rule="evenodd" fill="#fff" fill-rule="evenodd"/>
</symbol>
<symbol id="cn" viewBox="0.014 -0.854 1.343 0.907">
		<path d="m1.25-0.35c-0.2-0.367-0.5-0.533-0.9-0.5-0.367 0.033-0.433 0.15-0.2 0.35 0.133 0.167 0.35 0.3 0.65 0.4 0.533 0.267 0.683 0.183 0.45-0.25z" clip-rule="evenodd" fill="#fff" fill-rule="evenodd"/>
</symbol>
<symbol id="co" viewBox="0.038 -0.906 1.291 0.973">
		<path d="m1.25-0.3c-0.167-0.4-0.467-0.6-0.9-0.6-0.333-0.033-0.4 0.066-0.2 0.3 0.133 0.167 0.317 0.317 0.55 0.45 0.567 0.333 0.75 0.283 0.55-0.15z" clip-rule="evenodd" fill="#fff" fill-rule="evenodd"/>
</symbol>
<symbol id="cp" viewBox="-0.029 -1.05 0.807 1.05">
		<path d="m0.6-0.05c0.167-0.133 0.217-0.333 0.15-0.6-0.1-0.233-0.283-0.367-0.55-0.4-0.267 0-0.3 0.2-0.1 0.6 0.167 0.4 0.333 0.533 0.5 0.4z" clip-rule="evenodd" fill="#fff" fill-rule="evenodd"/>
</symbol>
<symbol id="cq" viewBox="0.032 -1.073 1.098 1.125">
		<path d="m1.1-0.25c-0.1-0.367-0.333-0.617-0.7-0.75-0.3-0.133-0.417-0.083-0.35 0.15 0.067 0.2 0.267 0.434 0.6 0.7 0.4 0.3 0.55 0.267 0.45-0.1z" clip-rule="evenodd" fill="#fff" fill-rule="evenodd"/>
</symbol>
<symbol id="cr" viewBox="-0.005 -0.945 1.005 0.97">
		<path d="m1-0.2c0-0.333-0.183-0.566-0.55-0.7-0.333-0.1-0.483-0.033-0.45 0.2 0 0.2 0.1 0.367 0.3 0.5 0.467 0.3 0.7 0.3 0.7 0z" clip-rule="evenodd" fill="#fff" fill-rule="evenodd"/>
</symbol>
<symbol id="dm" viewBox="0.012 -0.954 1.242 0.954">
		<path d="m0.55-0.1c0.6 0.2 0.817 0.1 0.65-0.3-0.2-0.4-0.483-0.583-0.85-0.55-0.3 0.034-0.4 0.167-0.3 0.4 0.067 0.233 0.233 0.383 0.5 0.45z" clip-rule="evenodd" fill="#fff" fill-rule="evenodd"/>
</symbol>
<symbol id="en" viewBox="-0.036 -0.706 1.256 0.711">
		<path d="m1.1-0.35c-0.167-0.267-0.433-0.383-0.8-0.35-0.367 0.034-0.433 0.167-0.2 0.4 0.233 0.2 0.517 0.3 0.85 0.3 0.3 0.033 0.35-0.083 0.15-0.35z" clip-rule="evenodd" fill="#fff" fill-rule="evenodd"/>
</symbol>
	<rect width="40" height="40" clip-rule="evenodd" fill-opacity="0"/>
		<radialGradient id="cs" cx="13.024" cy="-8.9517" r="21.679" gradientTransform="matrix(.4645 .7547 .7547 -.4645 16.412 -2.3159)" gradientUnits="userSpaceOnUse">
		<stop stop-color="#FFDE00" offset="0"/>
		<stop stop-color="#E6BF00" offset="1"/>
	</radialGradient>
	<path d="m30.194 9.013c1.802 1.447 3.221 3.19 4.254 5.229 0.148 0.207 0.576 0.443 1.285 0.709 0.591 0.207 0.961 0.591 1.107 1.152 0.119 0.473 0.015 0.99-0.31 1.551-0.443 0.739-0.724 1.389-0.842 1.95-0.65 2.984-2.289 5.657-4.918 8.021-3.132 2.835-6.81 4.268-11.034 4.297-3.899 0.03-7.06-0.649-9.482-2.038-0.798-0.472-1.832-1.373-3.102-2.702-0.177-0.178-0.827-0.458-1.949-0.842-0.945-0.296-1.462-0.724-1.551-1.285-0.148-0.709-0.104-1.271 0.133-1.685 0.502-0.886 0.797-1.462 0.886-1.728 0.532-2.748 1.344-5.199 2.437-7.355 2.156-4.166 5.436-6.75 9.837-7.754 5.318-1.212 9.735-0.386 13.249 2.48z" clip-rule="evenodd" fill="url(#cs)" fill-rule="evenodd"/>
		<use transform="matrix(.8862 0 0 -.8862 12.6 22.35)" x="-0.2" y="-10.85" width="25.45" height="11.612" enable-background="new" opacity=".1211" xlink:href="#cx"/>
		<use transform="matrix(.8862 0 0 -.8862 33.8 17.05)" x="-0.038" y="-2.463" width="3.355" height="2.463" enable-background="new" opacity=".1211" xlink:href="#dn"/>
		<use transform="matrix(.8862 0 0 -.8862 34.15 19.05)" x="-0.004" y="-1.104" width="0.9" height="1.118" enable-background="new" opacity=".1211" xlink:href="#dl"/>
		<use transform="matrix(.8862 0 0 -.8862 20 29.8)" x="-0.006" y="-0.75" width="1.537" height="0.741" enable-background="new" opacity=".1211" xlink:href="#dk"/>
		<use transform="matrix(.8862 0 0 -.8862 16.8 30.7)" x="0.038" y="-0.557" width="1.291" height="0.563" enable-background="new" opacity=".1211" xlink:href="#dj"/>
		<use transform="matrix(.8862 0 0 -.8862 23.2 28.9)" y="-1.205" width="1.517" height="1.221" enable-background="new" opacity=".1211" xlink:href="#di"/>
		<use transform="matrix(.8862 0 0 -.8862 26.2 26.65)" x="-0.025" y="-0.988" width="1.345" height="1.013" enable-background="new" opacity=".1211" xlink:href="#dh"/>
		<use transform="matrix(.8862 0 0 -.8862 30.75 22.2)" x="0.009" y="-1.295" width="1.086" height="1.312" enable-background="new" opacity=".1211" xlink:href="#dg"/>
		<use transform="matrix(.8862 0 0 -.8862 24.25 26.85)" y="-0.87" width="1.539" height="0.909" enable-background="new" opacity=".1211" xlink:href="#df"/>
		<use transform="matrix(.8862 0 0 -.8862 6.2002 26.3)" x="-0.022" y="-0.45" width="0.867" height="0.45" enable-background="new" opacity=".1211" xlink:href="#de"/>
		<use transform="matrix(.8862 0 0 -.8862 6.3999 26.65)" y="-0.77" width="1" height="0.776" enable-background="new" opacity=".1211" xlink:href="#dd"/>
		<use transform="matrix(.8862 0 0 -.8862 8.2002 25.75)" x="-0.005" y="-0.956" width="0.959" height="0.968" enable-background="new" opacity=".1211" xlink:href="#dc"/>
		<use transform="matrix(.8862 0 0 -.8862 8.2002 26.85)" y="-0.625" width="0.739" height="0.65" enable-background="new" opacity=".1211" xlink:href="#db"/>
		<use transform="matrix(.8862 0 0 -.8862 13.65 18.9)" x="-0.038" y="-0.807" width="1.398" height="0.807" enable-background="new" opacity=".4492" xlink:href="#da"/>
		<use transform="matrix(.8862 0 0 -.8862 15.6 18.15)" x="0.044" y="-0.658" width="1.256" height="0.653" enable-background="new" opacity=".4492" xlink:href="#cz"/>
		<use transform="matrix(.8862 0 0 -.8862 17.9 17.05)" x="0.014" y="-0.755" width="1.226" height="0.783" enable-background="new" opacity=".4492" xlink:href="#cy"/>
		<use transform="matrix(.8862 0 0 -.8862 14.7 19.25)" x="-0.036" y="-0.706" width="1.256" height="0.711" enable-background="new" opacity=".4492" xlink:href="#en"/>
		<use transform="matrix(.8862 0 0 -.8862 17 18.3)" x="0.012" y="-0.954" width="1.242" height="0.954" enable-background="new" opacity=".4492" xlink:href="#dm"/>
		<use transform="matrix(.8862 0 0 -.8862 19.65 15.85)" x="-0.005" y="-0.945" width="1.005" height="0.97" enable-background="new" opacity=".4492" xlink:href="#cr"/>
		<use transform="matrix(.8862 0 0 -.8862 23.15 14.25)" x="0.032" y="-1.073" width="1.098" height="1.125" enable-background="new" opacity=".4492" xlink:href="#cq"/>
		<use transform="matrix(.8862 0 0 -.8862 23.4 11.65)" x="-0.029" y="-1.05" width="0.807" height="1.05" enable-background="new" opacity=".4492" xlink:href="#cp"/>
		<use transform="matrix(.8862 0 0 -.8862 21.45 15.85)" x="0.038" y="-0.906" width="1.291" height="0.973" enable-background="new" opacity=".4492" xlink:href="#co"/>
		<use transform="matrix(.8862 0 0 -.8862 19.65 18.15)" x="0.014" y="-0.854" width="1.343" height="0.907" enable-background="new" opacity=".4492" xlink:href="#cn"/>
		<use transform="matrix(.8862 0 0 -.8862 19.1 18.9)" x="0.017" y="-0.937" width="0.986" height="0.949" enable-background="new" opacity=".4492" xlink:href="#cm"/>
		<use transform="matrix(.8862 0 0 -.8862 16.8 20.45)" x="-0.032" y="-0.856" width="1.525" height="0.845" enable-background="new" opacity=".4492" xlink:href="#cl"/>
		<use transform="matrix(.8862 0 0 -.8862 13.65 20.45)" x="-0.02" y="-0.6" width="0.95" height="0.629" enable-background="new" opacity=".4492" xlink:href="#ck"/>
		<use transform="matrix(.8862 0 0 -.8862 12.6 20.45)" x="-0.006" y="-0.805" width="0.662" height="0.805" enable-background="new" opacity=".4492" xlink:href="#cj"/>
		<use transform="matrix(.8862 0 0 -.8862 12.6 21)" x="-0.023" y="-0.65" width="0.985" height="0.65" enable-background="new" opacity=".4492" xlink:href="#ci"/>
		<use transform="matrix(.8862 0 0 -.8862 13.5 22.35)" x="0.032" y="-0.706" width="1.092" height="0.711" enable-background="new" opacity=".4492" xlink:href="#ch"/>
		<use transform="matrix(.8862 0 0 -.8862 15.25 22.2)" y="-0.75" width="1.172" height="0.72" enable-background="new" opacity=".4492" xlink:href="#cg"/>
		<use transform="matrix(.8862 0 0 -.8862 17.55 20.85)" x="-0.02" y="-0.707" width="1.225" height="0.727" enable-background="new" opacity=".4492" xlink:href="#cf"/>
		<use transform="matrix(.8862 0 0 -.8862 20.9 19.05)" x="-0.015" y="-0.673" width="1.019" height="0.679" enable-background="new" opacity=".4492" xlink:href="#ce"/>
		<use transform="matrix(.8862 0 0 -.8862 22.15 18.15)" x="0.004" y="-0.8" width="1" height="0.818" enable-background="new" opacity=".4492" xlink:href="#cd"/>
		<use transform="matrix(.8862 0 0 -.8862 24.05 9.8501)" x="-0.052" y="-0.817" width="1.188" height="0.822" enable-background="new" opacity=".4492" xlink:href="#cc"/>
		<use transform="matrix(.8862 0 0 -.8862 14.55 22.35)" x="0.011" y="-0.768" width="1.33" height="0.773" enable-background="new" opacity=".4492" xlink:href="#cb"/>
		<use transform="matrix(.8862 0 0 -.8862 12.6 22.75)" x="-0.014" y="-0.564" width="0.814" height="0.539" enable-background="new" opacity=".4492" xlink:href="#ca"/>
		<use transform="matrix(.8862 0 0 -.8862 23.4 15.85)" x="-0.012" y="-1.105" width="1.175" height="1.07" enable-background="new" opacity=".4492" xlink:href="#bz"/>
		<use transform="matrix(.8862 0 0 -.8862 25.45 13.6)" y="-1.153" width="0.978" height="1.17" enable-background="new" opacity=".4492" xlink:href="#by"/>
		<use transform="matrix(.8862 0 0 -.8862 25.45 11.65)" x="-0.046" y="-1.05" width="0.73" height="1.093" enable-background="new" opacity=".4492" xlink:href="#bx"/>
		<use transform="matrix(.8862 0 0 -.8862 23.75 8.6001)" x="-0.029" y="-0.675" width="0.919" height="0.682" enable-background="new" opacity=".4492" xlink:href="#bw"/>
		<use transform="matrix(.8862 0 0 -.8862 23.15 7.75)" x="0.017" y="-0.55" width="0.723" height="0.557" enable-background="new" opacity=".4492" xlink:href="#bv"/>
		<use transform="matrix(.8862 0 0 -.8862 25.45 9.5)" y="-0.907" width="1.034" height="0.936" enable-background="new" opacity=".4492" xlink:href="#bu"/>
		<use transform="matrix(.8862 0 0 -.8862 26.55 10.55)" x="-0.028" y="-0.95" width="0.79" height="0.975" enable-background="new" opacity=".4492" xlink:href="#em"/>
		<use transform="matrix(.8862 0 0 -.8862 26.55 12.65)" x="-0.039" y="-1.062" width="0.719" height="1.109" enable-background="new" opacity=".4492" xlink:href="#el"/>
		<use transform="matrix(.8862 0 0 -.8862 25.5 14.95)" x="-0.014" y="-0.9" width="0.764" height="0.894" enable-background="new" opacity=".4492" xlink:href="#ek"/>
		<use transform="matrix(.8862 0 0 -.8862 23.75 17.8)" x="0.082" y="-1.15" width="1.247" height="1.2" enable-background="new" opacity=".4492" xlink:href="#ej"/>
		<use transform="matrix(.8862 0 0 -.8862 23.15 19.05)" x="0.011" y="-0.722" width="1.117" height="0.763" enable-background="new" opacity=".4492" xlink:href="#ei"/>
		<use transform="matrix(.8862 0 0 -.8862 19.65 21)" x="-0.001" y="-0.8" width="1.52" height="0.868" enable-background="new" opacity=".4492" xlink:href="#eh"/>
		<use transform="matrix(.8862 0 0 -.8862 17 22.35)" x="0.015" y="-0.557" width="1.064" height="0.563" enable-background="new" opacity=".4492" xlink:href="#eg"/>
		<use transform="matrix(.8862 0 0 -.8862 12.6 26.65)" x="-0.025" y="-0.864" width="1.657" height="0.864" enable-background="new" opacity=".0586" xlink:href="#ef"/>
		<use transform="matrix(.8862 0 0 -.8862 14.55 26.85)" x="0.003" y="-0.8" width="1.37" height="0.805" enable-background="new" opacity=".0586" xlink:href="#ee"/>
		<use transform="matrix(.8862 0 0 -.8862 19.65 25.75)" x="-0.044" y="-1.004" width="1.719" height="1.004" enable-background="new" opacity=".0586" xlink:href="#ed"/>
		<use transform="matrix(.8862 0 0 -.8862 23.4 24.35)" x="-0.013" y="-1.305" width="1.584" height="1.317" enable-background="new" opacity=".0586" xlink:href="#ec"/>
		<use transform="matrix(.8862 0 0 -.8862 21.95 26.65)" x="-0.025" y="-0.606" width="0.92" height="0.601" enable-background="new" opacity=".0586" xlink:href="#eb"/>
		<use transform="matrix(.8862 0 0 -.8862 27.8 20.45)" x="-0.024" y="-1.53" width="1.526" height="1.565" enable-background="new" opacity=".0586" xlink:href="#ea"/>
		<use transform="matrix(.8862 0 0 -.8862 30.05 18.3)" x="-0.028" y="-1.239" width="1.034" height="1.312" enable-background="new" opacity=".0586" xlink:href="#dz"/>
		<use transform="matrix(.8862 0 0 -.8862 31.65 15.65)" x="0.004" y="-1.364" width="0.985" height="1.406" enable-background="new" opacity=".0586" xlink:href="#dy"/>
		<use transform="matrix(.8862 0 0 -.8862 30.05 16.55)" x="-0.007" y="-1.353" width="0.917" height="1.365" enable-background="new" opacity=".0586" xlink:href="#dx"/>
		<use transform="matrix(.8862 0 0 -.8862 29.7 20.45)" x="0.011" y="-1.254" width="1.105" height="1.267" enable-background="new" opacity=".0586" xlink:href="#dw"/>
		<use transform="matrix(.8862 0 0 -.8862 27.45 22.35)" x="0.005" y="-1.35" width="1.567" height="1.357" enable-background="new" opacity=".0586" xlink:href="#dv"/>
		<use transform="matrix(.8862 0 0 -.8862 15.6 25.55)" x="-0.018" y="-1.017" width="1.476" height="1.045" enable-background="new" opacity=".0586" xlink:href="#du"/>
		<use transform="matrix(.8862 0 0 -.8862 10.5 26.65)" x="-0.029" y="-0.9" width="1.127" height="0.907" enable-background="new" opacity=".0586" xlink:href="#dt"/>
		<use transform="matrix(.8862 0 0 -.8862 26.55 24.35)" x="-0.004" y="-1.347" width="1.472" height="1.369" enable-background="new" opacity=".0586" xlink:href="#ds"/>
		<use transform="matrix(.8862 0 0 -.8862 17.55 26.85)" x="0.033" y="-0.7" width="1.42" height="0.72" enable-background="new" opacity=".0586" xlink:href="#dr"/>
		<use transform="matrix(.8862 0 0 -.8862 3.75 7.1001)" y="-28.201" width="37.603" height="28.651" enable-background="new" opacity=".0703" xlink:href="#cw"/>
		<use transform="matrix(.8862 0 0 -.8862 6.25 7.6001)" x="0.029" y="-18.677" width="26.054" height="18.662" enable-background="new" opacity=".2891" xlink:href="#dq"/>
		<use transform="matrix(.8862 0 0 -.8862 6.75 7.6001)" x="-0.007" y="-16.308" width="21.47" height="16.284" enable-background="new" opacity=".1602" xlink:href="#dp"/>
		<use transform="matrix(.8862 0 0 -.8862 4.25 22.75)" x="-0.002" y="-3.202" width="4.491" height="3.202" enable-background="new" opacity=".3281" xlink:href="#do"/>
	<path d="m4.894 23.104c0.414-0.088 0.546 0.045 0.399 0.399-0.178 0.324-0.384 0.502-0.621 0.531-0.207 0.03-0.266-0.118-0.177-0.443 0.088-0.295 0.221-0.457 0.399-0.487z" clip-rule="evenodd" fill="#FDFFE3" fill-rule="evenodd"/>
	<path d="m5.869 23.458c0.354 0 0.473 0.147 0.354 0.443-0.118 0.266-0.369 0.369-0.753 0.31-0.354-0.059-0.428-0.206-0.222-0.442 0.178-0.207 0.384-0.311 0.621-0.311z" clip-rule="evenodd" fill="#FDFFE3" fill-rule="evenodd"/>
	<path d="m6.001 22.66c0.147 0.03 0.207 0.134 0.178 0.311 0 0.178-0.133 0.266-0.399 0.266-0.266-0.029-0.34-0.147-0.222-0.354 0.119-0.207 0.266-0.281 0.443-0.223z" clip-rule="evenodd" fill="#FDFFE3" fill-rule="evenodd"/>
	<path d="m6.888 23.325c0.621 0.029 0.827 0.236 0.621 0.62-0.177 0.414-0.414 0.517-0.709 0.311-0.236-0.147-0.34-0.34-0.311-0.576 0.059-0.237 0.192-0.355 0.399-0.355z" clip-rule="evenodd" fill="#FDFFE3" fill-rule="evenodd"/>
	<path d="m6.312 24.345c0.443 0.059 0.635 0.236 0.576 0.531-0.088 0.296-0.325 0.398-0.708 0.311-0.325-0.089-0.429-0.267-0.311-0.532 0.089-0.237 0.236-0.34 0.443-0.31z" clip-rule="evenodd" fill="#FDFFE3" fill-rule="evenodd"/>
	<path d="m7.996 17.521c0.147 0.147 0.162 0.34 0.044 0.576-0.088 0.207-0.221 0.251-0.398 0.133-0.177-0.088-0.192-0.251-0.044-0.487 0.176-0.237 0.309-0.311 0.398-0.222z" clip-rule="evenodd" fill="#FDFFE3" fill-rule="evenodd"/>
	<path d="m8.35 18.185c0.384-0.207 0.472-0.015 0.266 0.576-0.178 0.561-0.414 0.753-0.709 0.576-0.266-0.147-0.31-0.354-0.133-0.62 0.118-0.177 0.31-0.354 0.576-0.532z" clip-rule="evenodd" fill="#FDFFE3" fill-rule="evenodd"/>
	<path d="m7.021 18.894c0.296-0.029 0.399 0.104 0.311 0.399-0.089 0.295-0.236 0.487-0.443 0.576-0.179 0.059-0.238-0.074-0.179-0.399 0.089-0.354 0.192-0.546 0.311-0.576z" clip-rule="evenodd" fill="#FDFFE3" fill-rule="evenodd"/>
	<path d="m7.685 19.736c0.414-0.354 0.621-0.236 0.621 0.354 0 0.118-0.074 0.251-0.221 0.398-0.148 0.147-0.34 0.222-0.576 0.222-0.237-0.029-0.31-0.163-0.222-0.398 0.059-0.266 0.192-0.458 0.398-0.576z" clip-rule="evenodd" fill="#FDFFE3" fill-rule="evenodd"/>
	<path d="m9.369 19.071c0.266-0.177 0.325-0.015 0.177 0.487-0.147 0.532-0.34 0.738-0.576 0.621-0.207-0.089-0.251-0.266-0.133-0.532 0.119-0.236 0.296-0.428 0.532-0.576z" clip-rule="evenodd" fill="#FDFFE3" fill-rule="evenodd"/>
	<path d="m9.236 18.141c0.443-0.266 0.576-0.207 0.399 0.177-0.148 0.414-0.354 0.591-0.621 0.532-0.207-0.03-0.251-0.148-0.133-0.354 0.119-0.178 0.237-0.296 0.355-0.355z" clip-rule="evenodd" fill="#FDFFE3" fill-rule="evenodd"/>
	<path d="m8.527 20.711c0.384-0.118 0.532 0.015 0.443 0.398-0.06 0.385-0.267 0.606-0.621 0.665-0.325 0.059-0.443-0.074-0.354-0.398 0.06-0.355 0.237-0.576 0.532-0.665z" clip-rule="evenodd" fill="#FDFFE3" fill-rule="evenodd"/>
	<path d="m9.812 21.021c0.384-0.118 0.562-0.045 0.532 0.222-0.029 0.295-0.221 0.442-0.576 0.442-0.296 0.03-0.399-0.059-0.311-0.266 0.089-0.206 0.208-0.339 0.355-0.398z" clip-rule="evenodd" fill="#FDFFE3" fill-rule="evenodd"/>
	<path d="m10.3 19.914c0.325-0.295 0.473-0.311 0.443-0.044-0.029 0.266-0.133 0.428-0.31 0.487-0.147 0.059-0.236 0.015-0.266-0.133-0.06-0.119-0.015-0.222 0.133-0.31z" clip-rule="evenodd" fill="#FDFFE3" fill-rule="evenodd"/>
	<path d="m10.3 18.628c0.177 0.177 0.222 0.325 0.133 0.443-0.059 0.118-0.162 0.178-0.31 0.178-0.118-0.03-0.133-0.163-0.044-0.399 0.088-0.266 0.161-0.34 0.221-0.222z" clip-rule="evenodd" fill="#FDFFE3" fill-rule="evenodd"/>
	<path d="m8.616 22.306c0.118 0.118 0.118 0.207 0 0.267-0.118 0.059-0.251 0.059-0.399 0-0.148-0.06-0.148-0.148 0-0.267 0.178-0.089 0.31-0.089 0.399 0z" clip-rule="evenodd" fill="#FDFFE3" fill-rule="evenodd"/>
	<path d="m7.065 21.376c0.029 0.177 0 0.266-0.089 0.266s-0.177-0.089-0.266-0.266c-0.118-0.148-0.088-0.222 0.089-0.222s0.266 0.074 0.266 0.222z" clip-rule="evenodd" fill="#FDFFE3" fill-rule="evenodd"/>
	<path d="m6.356 20.224c0.118 0.059 0.192 0.133 0.222 0.222 0.029 0.088-0.015 0.147-0.133 0.177-0.118 0-0.192-0.074-0.222-0.222 0-0.177 0.044-0.237 0.133-0.177z" clip-rule="evenodd" fill="#FDFFE3" fill-rule="evenodd"/>
	<path d="m9.679 22.217c0.384-0.088 0.532-0.044 0.443 0.134-0.118 0.206-0.251 0.31-0.399 0.31-0.118 0.03-0.192-0.029-0.221-0.177-0.03-0.149 0.03-0.237 0.177-0.267z" clip-rule="evenodd" fill="#FDFFE3" fill-rule="evenodd"/>
		<use transform="matrix(.8862 0 0 -.8862 23.4 6.3501)" y="-11.3" width="14.8" height="11.3" enable-background="new" opacity=".1016" xlink:href="#cv"/>
	<path d="m11.584 13.4c-0.295 0.177-0.443 0.354-0.443 0.532-0.03 0.266 0.059 0.354 0.266 0.266 0.236-0.089 0.414-0.369 0.532-0.842 0.059-0.178-0.059-0.163-0.355 0.044zm-0.088-0.665c0.177-0.354 0.177-0.502 0-0.443-0.207 0.059-0.399 0.222-0.576 0.487-0.147 0.266-0.133 0.414 0.044 0.443 0.178 0.03 0.355-0.132 0.532-0.487zm0.576-0.886c0.266-0.06 0.354-0.222 0.266-0.488-0.059-0.236-0.236-0.236-0.532 0-0.177 0.118-0.236 0.251-0.177 0.399 0.03 0.118 0.177 0.148 0.443 0.089zm0.133 2.924c0.325 0.059 0.591-0.118 0.797-0.532 0.207-0.414 0.029-0.547-0.532-0.399-0.207 0.059-0.369 0.222-0.487 0.487-0.088 0.267-0.014 0.415 0.222 0.444zm0.532-3.19c-0.089 0.148-0.029 0.221 0.177 0.221 0.237 0.03 0.399-0.059 0.488-0.266 0.089-0.236 0.029-0.325-0.177-0.266-0.237 0.06-0.399 0.164-0.488 0.311zm-0.355 0.709c0.147-0.266 0-0.325-0.443-0.177-0.148 0.059-0.237 0.163-0.266 0.31-0.03 0.147 0.044 0.236 0.221 0.266 0.208-1e-3 0.37-0.133 0.488-0.399zm1.418 0.133c0.089-0.177 0.045-0.266-0.133-0.266-0.207 0-0.472 0.088-0.797 0.266-0.147 0.089-0.266 0.236-0.354 0.443-0.088 0.266 0 0.414 0.266 0.443 0.413 0.06 0.752-0.236 1.018-0.886zm0.886 1.241c0.207-0.236 0.281-0.428 0.222-0.576-0.059-0.207-0.325-0.236-0.797-0.089-0.266 0.059-0.443 0.207-0.532 0.443-0.118 0.236-0.104 0.473 0.044 0.709 0.118 0.206 0.295 0.222 0.532 0.044 0.118-0.089 0.295-0.265 0.531-0.531zm0.931-1.507c-0.266 0.207-0.414 0.502-0.443 0.886-0.059 0.443 0.147 0.649 0.62 0.62 0.443-0.029 0.783-0.251 1.02-0.665 0.177-0.295 0.251-0.562 0.222-0.797 0-0.207-0.118-0.34-0.355-0.399-0.296-0.117-0.65 0-1.064 0.355zm-1.152 0.31c0.354-0.03 0.561-0.266 0.62-0.709 0.089-0.414-0.029-0.546-0.354-0.399-0.207 0.089-0.384 0.295-0.532 0.621-0.148 0.354-0.059 0.517 0.266 0.487zm1.817-1.861c0.029-0.414-0.118-0.561-0.443-0.443-0.384 0.147-0.591 0.369-0.621 0.665-0.029 0.325 0.133 0.472 0.488 0.443 0.354-0.03 0.546-0.252 0.576-0.665zm-0.975-1.55c-0.147 0.236-0.044 0.384 0.311 0.443 0.414 0.059 0.723-0.088 0.93-0.443 0.236-0.355 0.015-0.473-0.665-0.355-0.266 0.029-0.458 0.148-0.576 0.355zm-1.684 1.151c-0.266 0.266-0.354 0.473-0.266 0.621 0.148 0.177 0.488-0.015 1.02-0.577 0.531-0.561 0.546-0.738 0.044-0.531-0.296 0.118-0.562 0.28-0.798 0.487zm7.179-0.886c-0.355 0.089-0.606 0.251-0.754 0.487-0.207 0.266-0.074 0.428 0.398 0.488 0.502 0.088 0.827-0.089 0.976-0.532 0.117-0.443-0.089-0.59-0.62-0.443zm-2.969 0.576c0.295 0 0.546-0.148 0.753-0.443 0.236-0.295 0.133-0.428-0.311-0.398-0.354 0.029-0.591 0.177-0.709 0.443-0.088 0.265 0 0.398 0.267 0.398zm0.531 0.798c-0.207 0.059-0.355 0.281-0.443 0.665-0.089 0.384 0 0.591 0.266 0.621 0.354 0.088 0.679-0.147 0.975-0.709 0.295-0.533 0.029-0.725-0.798-0.577zm-0.886-1.994h0.443c1.181-0.502 1.167-0.694-0.045-0.576-0.207 0.029-0.369 0.133-0.487 0.31-0.148 0.207-0.118 0.295 0.089 0.266zm2.393-0.488c-0.295-0.029-0.458 0.074-0.487 0.311s0.104 0.339 0.398 0.31c0.325-0.03 0.561-0.133 0.709-0.31 0.118-0.178-0.089-0.281-0.62-0.311zm1.151 0c0.178 0.089 0.399 0.148 0.665 0.178 0.266 0.029 0.414 0.015 0.443-0.045l0.31 0.311c-0.414 0.059-0.694 0.162-0.842 0.31-0.177 0.147-0.089 0.311 0.267 0.487 0.088 0.059 0.222 0.089 0.397 0.089-0.146 0.088-0.222 0.177-0.222 0.266-0.029 0.207-0.19 0.34-0.486 0.399-0.473 0.118-0.828 0.251-1.063 0.399-1.034 0.649-1.596 1.211-1.684 1.684-0.532 0.059-1.388 0.709-2.57 1.95-0.236 0.207-0.665 0.384-1.285 0.532 0.177-0.147 0.295-0.295 0.354-0.443 0.029-0.177-0.044-0.251-0.222-0.222-0.236 0.06-0.428 0.163-0.576 0.311-0.177 0.177-0.207 0.325-0.089 0.443l-0.753 0.044c0-0.118-0.118-0.147-0.354-0.088-0.118 0-0.251 0.074-0.399 0.222-0.472 0.059-0.768 0.162-0.886 0.31l-0.576-0.398c0.059-0.118 0.089-0.236 0.089-0.354 0.029-0.118-0.044-0.163-0.222-0.133-0.147 0.06-0.281 0.148-0.399 0.266l-0.709-0.266c0.236-0.118 0.384-0.266 0.443-0.443s-0.089-0.251-0.443-0.222c-0.177 0-0.339 0.089-0.487 0.266-0.059-0.177 0-0.414 0.177-0.709 0.148 0.148 0.295 0.148 0.443 0 0.118-0.088 0.178-0.222 0.178-0.399 0.029-0.177 0-0.295-0.089-0.354l0.266-0.355c0 0.089 0.074 0.089 0.222 0 0.266-0.177 0.428-0.428 0.488-0.753l0.753-0.753c0.118 0.059 0.281 0.029 0.487-0.089 0.236-0.147 0.399-0.295 0.487-0.443 0.118-0.177 0.03-0.207-0.266-0.089l0.709-0.532c0.207 0.118 0.473 0.089 0.798-0.088 0.59-0.354 0.753-0.561 0.487-0.62 0.325-0.178 0.768-0.369 1.329-0.576 0.739 0.236 1.226 0.118 1.462-0.354h0.046c0.059 0 0.428-0.044 1.107-0.133 0 0.118 0.118 0.207 0.354 0.266 0.177 0.03 0.325 0 0.443-0.088 0.147-0.06 0.162-0.133 0.044-0.222l1.153 0.089c-0.059 0.113 0.015 0.231 0.221 0.349z" clip-rule="evenodd" fill="#FDFFE3" fill-rule="evenodd"/>
	<path d="m18.187 13.134c0.532 0 0.665 0.148 0.399 0.443-0.266 0.325-0.621 0.517-1.064 0.577-0.354 0.088-0.384-0.06-0.088-0.443 0.295-0.385 0.546-0.577 0.753-0.577z" clip-rule="evenodd" fill="#FDFFE3" fill-rule="evenodd"/>
	<path d="m15.085 15.394c0.443-0.03 0.768-0.192 0.975-0.488 0.177-0.177 0.236-0.118 0.177 0.177-0.088 0.266-0.266 0.428-0.531 0.487-0.266 0.059-0.473 0.044-0.621-0.044-0.207-0.088-0.207-0.132 0-0.132z" clip-rule="evenodd" fill="#FDFFE3" fill-rule="evenodd"/>
	<path d="m13.18 16.103c0.148 0 0.354-0.029 0.62-0.089 0.148-0.059 0.207-0.059 0.178 0-0.06 0.118-0.192 0.237-0.399 0.355-0.236 0.147-0.428 0.177-0.576 0.088-0.147-0.059-0.192-0.133-0.133-0.222 0.029-0.058 0.132-0.103 0.31-0.132z" clip-rule="evenodd" fill="#FDFFE3" fill-rule="evenodd"/>
	<path d="m15.218 16.28c0.266-0.148 0.488-0.207 0.665-0.177 0.148 0.029 0.177 0.089 0.088 0.177-0.325 0.325-0.605 0.473-0.842 0.443-0.354-0.029-0.325-0.177 0.089-0.443z" clip-rule="evenodd" fill="#FDFFE3" fill-rule="evenodd"/>
	<path d="m17.788 15.128c0.088-0.118 0.221-0.177 0.399-0.177 0.207-0.029 0.281 0.015 0.221 0.133-0.029 0.118-0.177 0.222-0.443 0.311-0.236 0.118-0.384 0.147-0.443 0.088-0.059-0.03-0.059-0.059 0-0.088 0.118-0.09 0.207-0.179 0.266-0.267z" clip-rule="evenodd" fill="#FDFFE3" fill-rule="evenodd"/>
	<path d="m19.339 12.514c0.148-0.148 0.31-0.207 0.487-0.177 0.177 0 0.236 0.074 0.177 0.221-0.088 0.118-0.236 0.251-0.443 0.399-0.206 0.118-0.398 0.163-0.576 0.133-0.147-0.06-0.162-0.148-0.044-0.266 0.089-0.059 0.222-0.163 0.399-0.31z" clip-rule="evenodd" fill="#FDFFE3" fill-rule="evenodd"/>
	<path d="m21.422 10.785c0.117 0.207 0.044 0.458-0.222 0.753-0.267 0.296-0.532 0.443-0.798 0.443-0.207 0-0.251-0.089-0.133-0.266 0.118-0.148 0.251-0.237 0.398-0.266 0.089 0 0.236-0.148 0.443-0.443 0.149-0.235 0.252-0.309 0.312-0.221z" clip-rule="evenodd" fill="#FDFFE3" fill-rule="evenodd"/>
	<path d="m20.979 12.469c0.177-0.148 0.251-0.133 0.222 0.044-0.06 0.177-0.178 0.325-0.354 0.443-0.148 0.118-0.296 0.163-0.443 0.133-0.147 0-0.192-0.044-0.133-0.133 0.057-0.117 0.293-0.28 0.708-0.487z" clip-rule="evenodd" fill="#FDFFE3" fill-rule="evenodd"/>
	<path d="m19.516 14.108c0.295-0.177 0.414-0.162 0.354 0.045-0.059 0.206-0.207 0.325-0.443 0.354-0.354 0.03-0.324-0.103 0.089-0.399z" clip-rule="evenodd" fill="#FDFFE3" fill-rule="evenodd"/>
	<path d="m22.795 10.032c0.118-0.207 0.236-0.236 0.354-0.088 0.089 0.147-0.029 0.325-0.354 0.531-0.296 0.177-0.398 0.207-0.311 0.089 0.031-0.089 0.134-0.266 0.311-0.532z" clip-rule="evenodd" fill="#FDFFE3" fill-rule="evenodd"/>
	<path d="m22.396 11.893c0.324-0.207 0.413-0.177 0.266 0.089-0.147 0.236-0.324 0.354-0.531 0.354-0.236 0.03-0.149-0.118 0.265-0.443z" clip-rule="evenodd" fill="#FDFFE3" fill-rule="evenodd"/>
	<path d="m11.851 15.881c0 0.473-0.163 0.488-0.488 0.045-0.147-0.178-0.104-0.281 0.133-0.311 0.236-0.029 0.355 0.059 0.355 0.266z" clip-rule="evenodd" fill="#FDFFE3" fill-rule="evenodd"/>
	<path d="m12.161 16.634c0.236 0.06 0.34 0.147 0.31 0.266-0.029 0.118-0.177 0.148-0.443 0.089-0.266-0.089-0.34-0.177-0.222-0.266 0.089-0.089 0.207-0.118 0.355-0.089z" clip-rule="evenodd" fill="#FDFFE3" fill-rule="evenodd"/>
	<path d="m13.49 17.078c0.088 0 0.236-0.03 0.443-0.089 0.088-0.029 0.148 0 0.177 0.089 0.029 0.118-0.029 0.221-0.177 0.31-0.177 0.089-0.414 0.104-0.709 0.044-0.236-0.03-0.28-0.104-0.133-0.222 0.148-0.088 0.281-0.132 0.399-0.132z" clip-rule="evenodd" fill="#FDFFE3" fill-rule="evenodd"/>
	<path d="m14.598 17.343c0.443-0.177 0.649-0.207 0.62-0.088 0 0.118-0.073 0.222-0.221 0.31-0.147 0.088-0.325 0.118-0.532 0.088-0.236-0.058-0.192-0.162 0.133-0.31z" clip-rule="evenodd" fill="#FDFFE3" fill-rule="evenodd"/>
	<path d="m9.369 14.685c0.03 0.295-0.044 0.384-0.222 0.266-0.177-0.148-0.251-0.31-0.222-0.488 0.06-0.147 0.133-0.191 0.222-0.133 0.119 0.06 0.192 0.178 0.222 0.355z" clip-rule="evenodd" fill="#FDFFE3" fill-rule="evenodd"/>
	<path d="m9.812 15.349c0.384 0.207 0.546 0.34 0.488 0.399-0.177 0.089-0.399 0.044-0.665-0.133-0.148-0.059-0.178-0.133-0.089-0.221 0.089-0.089 0.178-0.103 0.266-0.045z" clip-rule="evenodd" fill="#FDFFE3" fill-rule="evenodd"/>
	<path d="m10.565 16.103c0.177 0.029 0.31 0.104 0.399 0.222 0.059 0.059 0.059 0.118 0 0.177-0.148 0.147-0.384 0.104-0.709-0.133-0.118-0.089-0.133-0.163-0.044-0.222 0.06-0.059 0.178-0.074 0.354-0.044z" clip-rule="evenodd" fill="#FDFFE3" fill-rule="evenodd"/>
	<path d="m9.059 15.261c0.118 0.207 0.088 0.281-0.088 0.222-0.178-0.088-0.296-0.207-0.354-0.354-0.03-0.148 0.015-0.207 0.133-0.177 0.117 0.058 0.221 0.161 0.309 0.309z" clip-rule="evenodd" fill="#FDFFE3" fill-rule="evenodd"/>
	<path d="m12.028 17.609c0.148 0 0.266 0.029 0.354 0.089 0.088 0.059 0.044 0.118-0.133 0.177-0.266 0.089-0.517-0.044-0.753-0.398-0.088-0.118-0.059-0.133 0.088-0.044 0.237 0.117 0.385 0.176 0.444 0.176z" clip-rule="evenodd" fill="#FDFFE3" fill-rule="evenodd"/>
	<path d="m17.168 16.191c0.266-0.118 0.398-0.089 0.398 0.088 0 0.089-0.088 0.163-0.266 0.222-0.207 0.089-0.429 0.118-0.665 0.089-0.207-0.03-0.236-0.074-0.089-0.133 0.09-0.029 0.297-0.118 0.622-0.266z" clip-rule="evenodd" fill="#FDFFE3" fill-rule="evenodd"/>
	<path d="m19.206 15.128c0.177-0.059 0.236-0.03 0.177 0.088s-0.192 0.192-0.399 0.222c-0.177 0.029-0.222 0-0.133-0.089 0.089-0.088 0.207-0.162 0.355-0.221z" clip-rule="evenodd" fill="#FDFFE3" fill-rule="evenodd"/>
	<path d="m21.377 13.976c0.267-0.177 0.369-0.162 0.311 0.044-0.089 0.237-0.296 0.355-0.62 0.355-0.266-0.03-0.164-0.163 0.309-0.399z" clip-rule="evenodd" fill="#FDFFE3" fill-rule="evenodd"/>
	<path d="m3.786 25.187l0.089-0.222-0.399-0.576c-0.089-0.118-0.148-0.251-0.177-0.399v-0.177l0.398 0.222c0.118 0.118 0.192 0.296 0.222 0.532l0.266-1.108 0.266 1.063c-0.029 0.177-0.147 0.325-0.354 0.443l0.354 0.222c0.207 0.177 0.325 0.339 0.354 0.487 0 0.266-0.044 0.443-0.133 0.531l-0.576-1.151-0.133 0.31c-0.088 0.207-0.163 0.311-0.221 0.311-0.059-0.208-0.045-0.37 0.044-0.488z" clip-rule="evenodd" fill="#917200" fill-rule="evenodd"/>
	<path d="m3.697 24.965l-0.443-0.488-0.354-0.532c0.059-0.029 0.118-0.044 0.177-0.044 0.118 0 0.207 0.029 0.266 0.088 0.178 0.178 0.311 0.37 0.399 0.577l0.044-0.665 0.177-0.443 0.133 0.178c0.059 0.177 0.104 0.369 0.133 0.575 0.06 0.355 0.015 0.606-0.133 0.754l0.443 0.487c0.088 0.236 0.073 0.517-0.044 0.842-0.03 0.03-0.104-0.015-0.222-0.133-0.147-0.178-0.251-0.385-0.31-0.62l-0.044-0.311-0.222 0.354c-0.088 0.06-0.192 0.089-0.31 0.089-0.059-0.295 0.045-0.531 0.31-0.708z" clip-rule="evenodd" fill="#7DB51C" fill-rule="evenodd"/>
	<path d="m3.786 23.901l0.177-0.443v0.531c-0.03 0.385 0.015 0.709 0.133 0.976l0.443 0.487c0.088 0.236 0.073 0.517-0.044 0.842h-0.044l-0.044-0.311-0.665-1.417 0.044-0.665z" clip-rule="evenodd" fill="#6A9918" fill-rule="evenodd"/>
		<radialGradient id="ct" cx="-8.7339" cy="21.406" r=".6145" gradientTransform="matrix(.8833 -.0721 -.3785 -.8112 19.559 41.698)" gradientUnits="userSpaceOnUse">
		<stop stop-color="#7DB51C" offset="0"/>
		<stop stop-color="#466610" offset="1"/>
	</radialGradient>
	<path d="m3.786 24.876l-0.044-0.31c0.029-0.119 0.103-0.134 0.221-0.045 0.088 0.089 0.147 0.207 0.177 0.354 0.088 0.266 0.044 0.398-0.133 0.398-0.06 0.03-0.104 0-0.133-0.088-0.029-0.117-0.059-0.22-0.088-0.309z" clip-rule="evenodd" fill="url(#ct)" fill-rule="evenodd"/>
		<radialGradient id="cu" cx="-8.853" cy="21.448" r=".6145" gradientTransform="matrix(.8833 -.0721 -.3785 -.8112 19.592 41.769)" gradientUnits="userSpaceOnUse">
		<stop stop-color="#7DB51C" offset="0"/>
		<stop stop-color="#6A9918" offset="1"/>
	</radialGradient>
	<path d="m3.609 24.832c-0.03-0.089 0-0.178 0.088-0.266 0.089-0.09 0.163-0.075 0.222 0.044 0.089 0.118 0.148 0.251 0.177 0.398 0.03 0.147 0 0.236-0.088 0.266-0.178 0.089-0.311-0.058-0.399-0.442z" clip-rule="evenodd" fill="url(#cu)" fill-rule="evenodd"/>
</svg>